<svg xmlns="http://www.w3.org/2000/svg" xmlns:xlink="http://www.w3.org/1999/xlink" version="1.1" x="0px" y="0px" viewBox="0 0 100 125" enable-background="new 0 0 100 100" xml:space="preserve"><g><g><g><path d="M25.497,36.604L25.497,36.604c-0.481,0-0.965-0.046-1.441-0.136c-2.015-0.387-3.755-1.533-4.901-3.228     c-1.144-1.69-1.561-3.727-1.173-5.734c0.68-3.6,3.834-6.216,7.5-6.216c0.483,0,0.97,0.046,1.447,0.137     c2.011,0.385,3.751,1.528,4.899,3.22c1.146,1.69,1.565,3.728,1.179,5.735C32.322,33.986,29.164,36.604,25.497,36.604z      M25.482,22.761c-2.961,0-5.507,2.111-6.056,5.021c-0.314,1.625,0.021,3.269,0.946,4.635c0.926,1.369,2.333,2.294,3.96,2.607     c0.384,0.072,0.777,0.109,1.165,0.109c2.962,0,5.513-2.115,6.067-5.027c0.312-1.624-0.026-3.268-0.953-4.633     c-0.927-1.367-2.332-2.291-3.958-2.601C26.265,22.798,25.872,22.761,25.482,22.761z"/><path d="M66.352,85.073l-7.17-8.394l-5.012,6.924L39.694,73.442c-1.735-1.023-2.54-3.214-1.868-5.179l2.852-8.333L28.879,44.77     l-9.66-1.198c-0.753-0.107-1.425-0.425-1.959-0.917L5,30.391l3.677-4.08l12.674,10.19c0.718,0.2,4.049,1.092,6.13,1.092     c0.663,0,0.967-0.093,1.089-0.149c0.817-0.373,2.317-1.359,3.063-1.959c1.077-0.866,2.749-1.481,4.065-1.496l13.104,0.863     c1.776,0.025,3.317,1.402,3.545,3.2l0.943,14.798l-1.339,0.172c1.411,1.908,6.861,9.195,9.868,13.214l11.215,13.128     L66.352,85.073z M48.135,60.748l7.981,10.067c0.038,0.048,0.07,0.09,0.104,0.138l10.294,12.049l4.446-3.798L60.673,67.151     c-0.431-0.572-9.853-13.159-10.257-13.74l-1.067-1.538l2.387-0.307l-0.851-13.377c-0.136-1.048-1.039-1.854-2.143-1.87     l-13.083-0.863c-0.929,0.013-2.288,0.516-3.103,1.172c-0.831,0.669-2.42,1.717-3.374,2.151c-0.415,0.189-0.971,0.283-1.7,0.283     c-2.54,0-6.512-1.142-6.679-1.189l-0.142-0.041L8.839,28.329l-1.812,2.01l11.251,11.256c0.294,0.271,0.693,0.457,1.136,0.52     l10.252,1.271L42,59.237c0.055,0.068,0.086,0.107,0.115,0.15l0.2,0.304l-3.097,9.048c-0.447,1.309,0.088,2.768,1.273,3.469     l13.337,9.36l3.437-4.747L45.54,68.328L48.135,60.748z M47.282,67.775l11.262,8.156l-3.582-4.205l-6.308-7.957L47.282,67.775z      M48.893,51.229l-7.474-10.719l5.314,0.177L48.893,51.229z M44.305,42.079l1.717,2.461l-0.497-2.42L44.305,42.079z"/></g><path d="M93.077,36.636c-6.429-13.118-4.877-18.63-4.862-18.678l0.978-3.032l-2.208,2.297    c-4.354,4.532-27.331,12.101-41.425,12.643c-5.602,0.212-9.457,1.171-12.117,2.429c-0.214,0.508-0.472,0.987-0.773,1.438    c0.162-0.072,0.325-0.141,0.49-0.203c0.013-0.005,0.024-0.011,0.037-0.015c0.799-0.299,1.634-0.478,2.396-0.5    c2.361-0.855,5.584-1.511,10.025-1.678c13.192-0.506,34.116-7.156,40.952-11.88c-0.078,2.718,0.565,8.395,5.188,17.829    c4.368,8.913-0.055,14.86-5.485,19.959c-4.899,4.604-3.11,11.938-2.227,14.624c-2.686-0.037-10.299-0.408-18.552-3.208    l-0.471-0.204l1.854,2.188c8.206,2.481,15.328,2.699,17.546,2.699c0.4,0,0.643-0.007,0.7-0.009l1.063-0.037l-0.41-0.982    c-0.038-0.09-3.707-9.104,1.503-14C92.839,53.092,97.877,46.433,93.077,36.636z"/></g></g><text x="0" y="115" fill="#000000" font-size="5px" font-weight="bold" font-family="'Helvetica Neue', Helvetica, Arial-Unicode, Arial, Sans-serif">Created by Juan Pablo Bravo</text><text x="0" y="120" fill="#000000" font-size="5px" font-weight="bold" font-family="'Helvetica Neue', Helvetica, Arial-Unicode, Arial, Sans-serif">from the Noun Project</text></svg>